<svg xmlns="http://www.w3.org/2000/svg" width="1200" height="800" viewBox="0 0 1200 800" fill="none" role="img" aria-labelledby="title desc">
  <title id="title">Accompagnement quotidien et personnalise</title>
  <desc id="desc">Placeholder image for accompagnement quotidien et personnalise.</desc>
  <defs>
    <linearGradient id="bg" x1="120" y1="80" x2="1080" y2="720" gradientUnits="userSpaceOnUse">
      <stop stop-color="#FFF8EE" />
      <stop offset="1" stop-color="#FFE4CC" />
    </linearGradient>
    <linearGradient id="panel" x1="290" y1="210" x2="910" y2="590" gradientUnits="userSpaceOnUse">
      <stop stop-color="#FFFFFF" stop-opacity="0.95" />
      <stop offset="1" stop-color="#FFF2E2" stop-opacity="0.95" />
    </linearGradient>
  </defs>

  <rect width="1200" height="800" rx="40" fill="url(#bg)" />
  <rect x="28" y="28" width="1144" height="744" rx="28" fill="none" stroke="#E9B888" stroke-width="2" />

  <rect x="72" y="72" width="290" height="50" rx="25" fill="#FFFFFF" fill-opacity="0.85" />
  <text x="105" y="105" fill="#9B5E2B" font-size="24" font-family="Georgia, 'Times New Roman', serif" font-weight="700">Clos du Soleil</text>

  <rect x="290" y="210" width="620" height="380" rx="36" fill="url(#panel)" stroke="#E7B27D" stroke-width="2" />

  <circle cx="500" cy="360" r="62" fill="#FFE7D0" stroke="#D88A45" stroke-width="4" />
  <circle cx="700" cy="360" r="62" fill="#FFE7D0" stroke="#D88A45" stroke-width="4" />
  <path d="M540 445C540 418 561 396 588 396C603 396 617 403 626 415C635 403 649 396 664 396C691 396 712 418 712 445C712 481 677 507 626 542C575 507 540 481 540 445Z" fill="#D88A45" fill-opacity="0.9" />

  <text x="600" y="665" text-anchor="middle" fill="#7B3F14" font-size="42" font-family="Georgia, 'Times New Roman', serif" font-weight="700">Accompagnement quotidien</text>
</svg>
