<svg xmlns="http://www.w3.org/2000/svg" width="1200" height="800" viewBox="0 0 1200 800" fill="none" role="img" aria-labelledby="title desc">
  <title id="title">Accueil et transport individuel</title>
  <desc id="desc">Placeholder image for accueil et transport individuel.</desc>
  <defs>
    <linearGradient id="bg" x1="80" y1="70" x2="1120" y2="730" gradientUnits="userSpaceOnUse">
      <stop stop-color="#F5FAFF" />
      <stop offset="1" stop-color="#DCEEFF" />
    </linearGradient>
    <linearGradient id="panel" x1="290" y1="210" x2="910" y2="590" gradientUnits="userSpaceOnUse">
      <stop stop-color="#FFFFFF" stop-opacity="0.95" />
      <stop offset="1" stop-color="#EAF5FF" stop-opacity="0.95" />
    </linearGradient>
  </defs>

  <rect width="1200" height="800" rx="40" fill="url(#bg)" />
  <rect x="28" y="28" width="1144" height="744" rx="28" fill="none" stroke="#8EBDE8" stroke-width="2" />

  <rect x="72" y="72" width="290" height="50" rx="25" fill="#FFFFFF" fill-opacity="0.85" />
  <text x="105" y="105" fill="#2B679B" font-size="24" font-family="Georgia, 'Times New Roman', serif" font-weight="700">Clos du Soleil</text>

  <rect x="290" y="210" width="620" height="380" rx="36" fill="url(#panel)" stroke="#7AB0E1" stroke-width="2" />

  <path d="M415 390H760L855 330L880 357L790 435H710L655 487H620L645 435H560L505 487H470L495 435H430L415 390Z" fill="#4A8FCB" />
  <path d="M410 520H890" stroke="#4A8FCB" stroke-width="12" stroke-linecap="round" />
  <circle cx="500" cy="520" r="12" fill="#4A8FCB" />
  <circle cx="790" cy="520" r="12" fill="#4A8FCB" />

  <text x="600" y="665" text-anchor="middle" fill="#1D4F7C" font-size="42" font-family="Georgia, 'Times New Roman', serif" font-weight="700">Accueil et transport</text>
</svg>
