<svg xmlns="http://www.w3.org/2000/svg" width="1200" height="800" viewBox="0 0 1200 800" fill="none" role="img" aria-labelledby="title desc">
  <title id="title">Confort et proprete</title>
  <desc id="desc">Placeholder image for confort et proprete.</desc>
  <defs>
    <linearGradient id="bg" x1="110" y1="90" x2="1090" y2="710" gradientUnits="userSpaceOnUse">
      <stop stop-color="#F4F9F8" />
      <stop offset="1" stop-color="#D9F0EB" />
    </linearGradient>
    <linearGradient id="panel" x1="290" y1="210" x2="910" y2="590" gradientUnits="userSpaceOnUse">
      <stop stop-color="#FFFFFF" stop-opacity="0.95" />
      <stop offset="1" stop-color="#EAF8F4" stop-opacity="0.95" />
    </linearGradient>
  </defs>

  <rect width="1200" height="800" rx="40" fill="url(#bg)" />
  <rect x="28" y="28" width="1144" height="744" rx="28" fill="none" stroke="#92CCC0" stroke-width="2" />

  <rect x="72" y="72" width="290" height="50" rx="25" fill="#FFFFFF" fill-opacity="0.85" />
  <text x="105" y="105" fill="#2F7467" font-size="24" font-family="Georgia, 'Times New Roman', serif" font-weight="700">Clos du Soleil</text>

  <rect x="290" y="210" width="620" height="380" rx="36" fill="url(#panel)" stroke="#79BFAF" stroke-width="2" />

  <rect x="420" y="396" width="360" height="100" rx="28" fill="#6CB8A8" />
  <rect x="420" y="350" width="132" height="60" rx="24" fill="#90CEC2" />
  <rect x="565" y="350" width="215" height="60" rx="24" fill="#90CEC2" />
  <rect x="405" y="500" width="390" height="22" rx="11" fill="#4A9989" />

  <path d="M796 302L808 326L832 338L808 350L796 374L784 350L760 338L784 326L796 302Z" fill="#4A9989" />
  <path d="M706 286L713 300L727 307L713 314L706 328L699 314L685 307L699 300L706 286Z" fill="#4A9989" fill-opacity="0.8" />

  <text x="600" y="665" text-anchor="middle" fill="#255E53" font-size="42" font-family="Georgia, 'Times New Roman', serif" font-weight="700">Confort et proprete</text>
</svg>
