<svg xmlns="http://www.w3.org/2000/svg" width="1200" height="800" viewBox="0 0 1200 800" fill="none" role="img" aria-labelledby="title desc">
  <title id="title">Repas equilibres et conviviaux</title>
  <desc id="desc">Placeholder image for repas equilibres et conviviaux.</desc>
  <defs>
    <linearGradient id="bg" x1="85" y1="80" x2="1115" y2="720" gradientUnits="userSpaceOnUse">
      <stop stop-color="#FFFBEF" />
      <stop offset="1" stop-color="#FFEEC7" />
    </linearGradient>
    <linearGradient id="panel" x1="290" y1="210" x2="910" y2="590" gradientUnits="userSpaceOnUse">
      <stop stop-color="#FFFFFF" stop-opacity="0.95" />
      <stop offset="1" stop-color="#FFF7E0" stop-opacity="0.95" />
    </linearGradient>
  </defs>

  <rect width="1200" height="800" rx="40" fill="url(#bg)" />
  <rect x="28" y="28" width="1144" height="744" rx="28" fill="none" stroke="#E5C57C" stroke-width="2" />

  <rect x="72" y="72" width="290" height="50" rx="25" fill="#FFFFFF" fill-opacity="0.85" />
  <text x="105" y="105" fill="#8A6727" font-size="24" font-family="Georgia, 'Times New Roman', serif" font-weight="700">Clos du Soleil</text>

  <rect x="290" y="210" width="620" height="380" rx="36" fill="url(#panel)" stroke="#D4AE56" stroke-width="2" />

  <circle cx="600" cy="405" r="130" fill="#FFE8AE" stroke="#C89A2F" stroke-width="10" />
  <path d="M475 326V490" stroke="#C89A2F" stroke-width="12" stroke-linecap="round" />
  <path d="M456 326V370M475 326V370M494 326V370" stroke="#C89A2F" stroke-width="8" stroke-linecap="round" />
  <path d="M730 326V432C730 452 714 468 694 468H680" stroke="#C89A2F" stroke-width="12" stroke-linecap="round" stroke-linejoin="round" />
  <path d="M680 468V496" stroke="#C89A2F" stroke-width="12" stroke-linecap="round" />

  <text x="600" y="665" text-anchor="middle" fill="#745316" font-size="42" font-family="Georgia, 'Times New Roman', serif" font-weight="700">Repas equilibres</text>
</svg>
